<?xml version="1.0" encoding="utf-8"?>
<svg version="1.1" xmlns:xlink="http://www.w3.org/1999/xlink" width="16px" height="16px" xmlns="http://www.w3.org/2000/svg">
  <g transform="matrix(1 0 0 1 -337 -14 )">
    <path d="M 345 14  C 349.48 14  353 17.52  353 22  C 353 26.48  349.48 30  345 30  C 340.52 30  337 26.48  337 22  C 337 17.52  340.52 14  345 14  Z " fill-rule="nonzero" fill="#ffffff" stroke="none" fill-opacity="0" />
    <path d="M 345 14.5  C 349.2 14.5  352.5 17.8  352.5 22  C 352.5 26.2  349.2 29.5  345 29.5  C 340.8 29.5  337.5 26.2  337.5 22  C 337.5 17.8  340.8 14.5  345 14.5  Z " stroke-width="1" stroke="#000000" fill="none" />
  </g>
</svg>